<svg xmlns="http://www.w3.org/2000/svg" version="1.1" xmlns:xlink="http://www.w3.org/1999/xlink" xmlns:svgjs="http://svgjs.dev/svgjs" width="2000" height="2000" viewBox="0 0 2000 2000"><g transform="matrix(1,0,0,1,-0.28443113772425477,-0.28443113772459583)"><svg viewBox="0 0 334 334" data-background-color="#00ffef" preserveAspectRatio="xMidYMid meet" height="2000" width="2000" xmlns="http://www.w3.org/2000/svg" xmlns:xlink="http://www.w3.org/1999/xlink"><g id="tight-bounds" transform="matrix(1,0,0,1,0.04749999999998522,0.04750000000001364)"><svg viewBox="0 0 333.90454557049503 333.90454557049503" height="333.90454557049503" width="333.90454557049503"><g><svg></svg></g><g><svg viewBox="0 0 333.90454557049503 333.90454557049503" height="333.90454557049503" width="333.90454557049503"><g><path d="M0 166.952c0-92.205 74.747-166.952 166.952-166.952 92.205 0 166.952 74.747 166.953 166.952 0 92.205-74.747 166.952-166.953 166.953-92.205 0-166.952-74.747-166.952-166.953zM166.952 329.253c89.636 0 162.3-72.664 162.301-162.301 0-89.636-72.664-162.3-162.301-162.3-89.636 0-162.3 72.664-162.3 162.3 0 89.636 72.664 162.3 162.3 162.301z" data-fill-palette-color="tertiary" fill="#010c80" stroke="transparent"></path><ellipse rx="160.27418187383762" ry="160.27418187383762" cx="166.95227278524752" cy="166.95227278524752" fill="#010c80" stroke="transparent" stroke-width="0" fill-opacity="1" data-fill-palette-color="tertiary"></ellipse></g><g transform="matrix(1,0,0,1,86.4306768368719,71.17305217166896)"><svg viewBox="0 0 161.04319189675124 191.55844122715712" height="191.55844122715712" width="161.04319189675124"><g><svg viewBox="0 0 161.04319189675124 191.55844122715712" height="191.55844122715712" width="161.04319189675124"><g><svg viewBox="0 0 213.15844122715708 253.54874214157024" height="191.55844122715712" width="161.04319189675124"><g transform="matrix(1,0,0,1,0,147.85446183533085)"><svg viewBox="0 0 213.15844122715708 105.6942803062394" height="105.6942803062394" width="213.15844122715708"><g><svg viewBox="0 0 213.15844122715708 105.6942803062394" height="105.6942803062394" width="213.15844122715708"><g><svg viewBox="0 0 213.15844122715708 68.27624638922391" height="68.27624638922391" width="213.15844122715708"><g transform="matrix(1,0,0,1,0,0)"><svg width="213.15844122715708" viewBox="2.25 -37.5 156.09 50" height="68.27624638922391" data-palette-color="#00ffef"><path d="M11.9-0.95L11.9-0.95Q15.6-0.95 18.4-3.13 21.2-5.3 21.2-9.75L21.2-9.75Q21.2-11.75 20.23-13.18 19.25-14.6 17.65-15.38 16.05-16.15 14.15-16.73 12.25-17.3 10.35-17.95 8.45-18.6 6.85-19.5 5.25-20.4 4.28-22.05 3.3-23.7 3.3-26L3.3-26Q3.3-30 6.05-32.55 8.8-35.1 13.4-35.1 18-35.1 22.2-34.05L22.2-34.05 22.75-27.8 21.8-27.4 21.3-31.35Q17.6-34.1 14.35-34.1 11.1-34.1 8.9-32.13 6.7-30.15 6.7-26.2L6.7-26.2Q6.7-23.9 8.55-22.55 10.4-21.2 13.03-20.45 15.65-19.7 18.28-18.75 20.9-17.8 22.75-15.55 24.6-13.3 24.6-9.7L24.6-9.7Q24.6-4.85 21.15-2.4 17.7 0.05 12.05 0.05 6.4 0.05 2.25-3L2.25-3 2.3-8.3 3.25-8.55 3.35-5.7Q4.7-3.8 7.05-2.38 9.4-0.95 11.9-0.95ZM43.05 12.45L32.5 12.5 32.4 11.8 37.05 11.2Q37.4 11.15 37.5 10.5L37.5 10.5 39.15 0 37.5 0 29.15-23.25 29.1-23.3Q28.85-23.9 28.3-24L28.3-24 26.05-24.2Q26-24.5 26-24.95L26-24.95 36.5-25Q36.5-24.95 36.55-24.25L36.55-24.25 32.65-23.95 40.05-1.3 49.35-23.3Q49.5-23.6 49.17-23.8 48.85-24 48.5-24.05L48.5-24.05 46.3-24.2Q46.25-24.5 46.25-24.95L46.25-24.95 55.4-25Q55.4-24.95 55.45-24.25L55.45-24.25 51-23.8 40.5 0 38.6 11.45 42.95 11.7Q43.05 12.4 43.05 12.45L43.05 12.45ZM66.64 0L56.59 0.05 56.64-0.65 59.24-1Q59.7-1.05 59.7-1.7L59.7-1.7 59.7-23.35Q59.59-23.75 59.39-23.75L59.39-23.75 56.34-23.85 56.39-24.55Q59.55-25 60.64-25L60.64-25Q62.64-25 62.89-23.25L62.89-23.25 62.95-23.25 62.95-22.2Q67.05-25 70.8-25.15L70.8-25.15Q74.44-25.15 76.34-23.7L76.34-23.7Q77.19-23.05 77.87-21.68 78.55-20.3 78.55-18.4L78.55-18.4 78.55-1 82.3-0.75Q82.3-0.7 82.25 0L82.25 0 72.25 0.05Q72.25-0.4 72.3-0.65L72.3-0.65 74.89-1Q75.3-1.05 75.3-1.7L75.3-1.7 75.3-17.15Q75.3-19.15 74.77-20.55 74.25-21.95 73.59-22.6 72.94-23.25 72-23.6L72-23.6Q70.89-24 69.69-24L69.69-24Q66.69-23.95 62.95-21.65L62.95-21.65 62.95-1 66.69-0.75Q66.69-0.7 66.64 0L66.64 0ZM95.74-0.95L95.74-0.95 97.69-1.05 97.84-0.55Q97.79-0.55 97.14-0.4L97.14-0.4Q95.64-0.05 93.79-0.05L93.79-0.05Q92.09-0.15 90.69-0.63 89.29-1.1 88.09-2.63 86.89-4.15 86.89-6.55L86.89-6.55 86.89-24.1 84.34-24.1 84.74-24.5 86.94-24.95 87.34-29.75 90.14-30 90.14-25 96.19-25 96.19-24.1 90.14-24.1 90.14-7.4Q90.14-3.6 91.74-2.27 93.34-0.95 95.74-0.95ZM106.89-35.45L106.89-35.45 106.89-21.9Q113.44-26.4 118.74-24.7L118.74-24.7Q119.94-24.35 120.81-23.68 121.69-23 122.34-21.65 122.99-20.3 122.99-18.4L122.99-18.4 122.99-1 126.74-0.75Q126.74-0.7 126.69 0L126.69 0 116.69 0.05Q116.69-0.4 116.74-0.65L116.74-0.65 119.34-1Q119.64-1 119.74-1.45L119.74-1.45 119.74-17.1Q119.74-19.05 119.22-20.48 118.69-21.9 117.99-22.55 117.29-23.2 116.34-23.55L116.34-23.55Q115.04-24.05 114.04-23.95L114.04-23.95Q110.79-23.85 106.89-21.3L106.89-21.3 106.89-1 110.64-0.75Q110.64-0.7 110.59 0L110.59 0 100.59 0.05Q100.59-0.4 100.64-0.65L100.64-0.65 103.24-1Q103.64-1.05 103.64-1.7L103.64-1.7 103.64-35.7Q103.64-36.25 103.34-36.25L103.34-36.25 100.34-36.35 100.39-37.05Q103.09-37.5 104.49-37.5 105.89-37.5 106.39-36.85 106.89-36.2 106.89-35.45ZM139.34 0L129.74 0.05 129.79-0.65 133.39-1.1Q133.89-1.15 134.19-1.75L134.19-1.75 142.64-17 133.09-33.3 132.84-33.65Q132.79-33.85 132.39-33.95L132.39-33.95 130.14-34.2 130.09-34.95 139.49-35Q139.49-34.95 139.54-34.25L139.54-34.25 136.29-33.95 144.74-19 152.29-33.2Q152.34-33.35 152.21-33.55 152.09-33.75 151.89-33.8L151.89-33.8 147.64-34.2 147.59-34.95 156.69-35Q156.69-34.95 156.74-34.25L156.74-34.25 154.09-34 145.19-18.15 155.29-0.95 158.34-0.75Q158.34-0.7 158.29 0L158.29 0 148.29 0.05Q148.29-0.4 148.34-0.65L148.34-0.65 150.74-1Q151.04-1.05 151.24-1.25 151.44-1.45 151.29-1.65L151.29-1.65 143.14-16.1 135.14-1.05 139.39-0.75Q139.39-0.7 139.34 0L139.34 0Z" opacity="1" transform="matrix(1,0,0,1,0,0)" fill="#00ffef" class="undefined-text-0" data-fill-palette-color="quaternary" id="text-0"></path></svg></g></svg></g><g transform="matrix(1,0,0,1,0,84.39462953180634)"><svg viewBox="0 0 213.15844122715708 21.29965077443307" height="21.29965077443307" width="213.15844122715708"><g transform="matrix(1,0,0,1,0,0)"><svg width="213.15844122715708" viewBox="2.49 -37.5 482.01 48.17" height="21.29965077443307" data-palette-color="#00ffef"><path d="M24.58-11.57L30.74-11.57Q30.2-5.88 26.54-2.7 22.88 0.49 16.8 0.49L16.8 0.49Q12.55 0.49 9.31-1.53 6.08-3.54 4.32-7.25 2.56-10.96 2.49-15.87L2.49-15.87 2.49-19.19Q2.49-24.22 4.27-28.05 6.05-31.88 9.39-33.96 12.72-36.04 17.09-36.04L17.09-36.04Q22.97-36.04 26.56-32.84 30.15-29.64 30.74-23.8L30.74-23.8 24.58-23.8Q24.15-27.64 22.35-29.33 20.56-31.03 17.09-31.03L17.09-31.03Q13.06-31.03 10.9-28.09 8.74-25.15 8.69-19.46L8.69-19.46 8.69-16.31Q8.69-10.55 10.75-7.52 12.82-4.49 16.8-4.49L16.8-4.49Q20.43-4.49 22.27-6.13 24.1-7.76 24.58-11.57L24.58-11.57ZM49.53-26.56L49.51-21Q48.34-21.19 47.09-21.19L47.09-21.19Q43.02-21.19 41.6-18.07L41.6-18.07 41.6 0 35.67 0 35.67-26.42 41.33-26.42 41.48-23.46Q43.63-26.9 47.43-26.9L47.43-26.9Q48.7-26.9 49.53-26.56L49.53-26.56ZM64.42 0.49L64.42 0.49Q58.78 0.49 55.28-3.06 51.78-6.62 51.78-12.52L51.78-12.52 51.78-13.26Q51.78-17.21 53.3-20.32 54.83-23.44 57.59-25.17 60.35-26.9 63.74-26.9L63.74-26.9Q69.14-26.9 72.08-23.46 75.02-20.02 75.02-13.72L75.02-13.72 75.02-11.33 57.76-11.33Q58.03-8.06 59.94-6.15 61.86-4.25 64.77-4.25L64.77-4.25Q68.84-4.25 71.41-7.54L71.41-7.54 74.6-4.49Q73.02-2.12 70.37-0.82 67.72 0.49 64.42 0.49ZM63.72-22.14L63.72-22.14Q61.27-22.14 59.77-20.43 58.27-18.73 57.86-15.67L57.86-15.67 69.16-15.67 69.16-16.11Q68.96-19.09 67.57-20.62 66.18-22.14 63.72-22.14ZM101.46 0L95.4 0Q95.01-0.76 94.72-2.47L94.72-2.47Q91.89 0.49 87.79 0.49L87.79 0.49Q83.81 0.49 81.29-1.78 78.78-4.05 78.78-7.4L78.78-7.4Q78.78-11.62 81.91-13.88 85.05-16.14 90.89-16.14L90.89-16.14 94.52-16.14 94.52-17.87Q94.52-19.92 93.38-21.15 92.23-22.39 89.89-22.39L89.89-22.39Q87.86-22.39 86.56-21.37 85.27-20.36 85.27-18.8L85.27-18.8 79.34-18.8Q79.34-20.97 80.78-22.86 82.22-24.76 84.7-25.83 87.18-26.9 90.23-26.9L90.23-26.9Q94.87-26.9 97.62-24.57 100.38-22.24 100.46-18.02L100.46-18.02 100.46-6.1Q100.46-2.54 101.46-0.42L101.46-0.42 101.46 0ZM88.88-4.27L88.88-4.27Q90.64-4.27 92.19-5.13 93.74-5.98 94.52-7.42L94.52-7.42 94.52-12.4 91.33-12.4Q88.03-12.4 86.37-11.25 84.71-10.11 84.71-8.01L84.71-8.01Q84.71-6.3 85.84-5.29 86.98-4.27 88.88-4.27ZM108.17-32.84L114.1-32.84 114.1-26.42 118.76-26.42 118.76-22.02 114.1-22.02 114.1-7.28Q114.1-5.76 114.7-5.09 115.3-4.42 116.84-4.42L116.84-4.42Q117.86-4.42 118.91-4.66L118.91-4.66 118.91-0.07Q116.88 0.49 115 0.49L115 0.49Q108.17 0.49 108.17-7.06L108.17-7.06 108.17-22.02 103.82-22.02 103.82-26.42 108.17-26.42 108.17-32.84ZM134.92 0.49L134.92 0.49Q129.28 0.49 125.78-3.06 122.28-6.62 122.28-12.52L122.28-12.52 122.28-13.26Q122.28-17.21 123.8-20.32 125.33-23.44 128.09-25.17 130.85-26.9 134.24-26.9L134.24-26.9Q139.64-26.9 142.58-23.46 145.52-20.02 145.52-13.72L145.52-13.72 145.52-11.33 128.26-11.33Q128.53-8.06 130.44-6.15 132.36-4.25 135.27-4.25L135.27-4.25Q139.34-4.25 141.91-7.54L141.91-7.54 145.1-4.49Q143.52-2.12 140.87-0.82 138.22 0.49 134.92 0.49ZM134.22-22.14L134.22-22.14Q131.77-22.14 130.27-20.43 128.77-18.73 128.36-15.67L128.36-15.67 139.66-15.67 139.66-16.11Q139.47-19.09 138.07-20.62 136.68-22.14 134.22-22.14ZM180.28-26.42L185.77-8.18 189.97-26.42 195.76-26.42 188.56 0 183.67 0 178.01-18.14 172.44 0 167.56 0 160.33-26.42 166.12-26.42 170.39-8.37 175.81-26.42 180.28-26.42ZM205.57-37.5L205.57-23.54Q208.48-26.9 212.92-26.9L212.92-26.9Q221.37-26.9 221.49-17.26L221.49-17.26 221.49 0 215.56 0 215.56-17.04Q215.56-19.78 214.37-20.91 213.19-22.05 210.89-22.05L210.89-22.05Q207.33-22.05 205.57-18.87L205.57-18.87 205.57 0 199.64 0 199.64-37.5 205.57-37.5ZM249.32 0L243.26 0Q242.87-0.76 242.58-2.47L242.58-2.47Q239.75 0.49 235.65 0.49L235.65 0.49Q231.67 0.49 229.15-1.78 226.64-4.05 226.64-7.4L226.64-7.4Q226.64-11.62 229.77-13.88 232.91-16.14 238.75-16.14L238.75-16.14 242.38-16.14 242.38-17.87Q242.38-19.92 241.24-21.15 240.09-22.39 237.75-22.39L237.75-22.39Q235.72-22.39 234.43-21.37 233.13-20.36 233.13-18.8L233.13-18.8 227.2-18.8Q227.2-20.97 228.64-22.86 230.08-24.76 232.56-25.83 235.04-26.9 238.09-26.9L238.09-26.9Q242.73-26.9 245.49-24.57 248.24-22.24 248.32-18.02L248.32-18.02 248.32-6.1Q248.32-2.54 249.32-0.42L249.32-0.42 249.32 0ZM236.75-4.27L236.75-4.27Q238.5-4.27 240.05-5.13 241.6-5.98 242.38-7.42L242.38-7.42 242.38-12.4 239.19-12.4Q235.89-12.4 234.23-11.25 232.57-10.11 232.57-8.01L232.57-8.01Q232.57-6.3 233.71-5.29 234.84-4.27 236.75-4.27ZM256.03-32.84L261.96-32.84 261.96-26.42 266.63-26.42 266.63-22.02 261.96-22.02 261.96-7.28Q261.96-5.76 262.56-5.09 263.16-4.42 264.7-4.42L264.7-4.42Q265.72-4.42 266.77-4.66L266.77-4.66 266.77-0.07Q264.75 0.49 262.87 0.49L262.87 0.49Q256.03 0.49 256.03-7.06L256.03-7.06 256.03-22.02 251.68-22.02 251.68-26.42 256.03-26.42 256.03-32.84ZM287.25-26.42L292.84-8.5 298.21-26.42 304.54-26.42 294.04 4Q291.62 10.67 285.83 10.67L285.83 10.67Q284.54 10.67 282.98 10.23L282.98 10.23 282.98 5.64 284.1 5.71Q286.35 5.71 287.48 4.9 288.62 4.08 289.28 2.15L289.28 2.15 290.13-0.12 280.85-26.42 287.25-26.42ZM306.46-13.16L306.46-13.45Q306.46-17.33 308-20.45 309.54-23.56 312.32-25.23 315.1-26.9 318.72-26.9L318.72-26.9Q324.06-26.9 327.4-23.46 330.73-20.02 331-14.33L331-14.33 331.02-12.94Q331.02-9.03 329.52-5.96 328.02-2.88 325.22-1.2 322.43 0.49 318.77 0.49L318.77 0.49Q313.18 0.49 309.82-3.23 306.46-6.96 306.46-13.16L306.46-13.16ZM312.39-12.94L312.39-12.94Q312.39-8.86 314.08-6.56 315.76-4.25 318.77-4.25 321.77-4.25 323.44-6.59 325.11-8.94 325.11-13.45L325.11-13.45Q325.11-17.46 323.39-19.8 321.67-22.14 318.72-22.14L318.72-22.14Q315.81-22.14 314.1-19.84 312.39-17.53 312.39-12.94ZM352.19 0L352.04-2.59Q349.43 0.49 344.62 0.49L344.62 0.49Q340.32 0.49 338.11-2.03 335.9-4.54 335.9-9.3L335.9-9.3 335.9-26.42 341.84-26.42 341.84-9.38Q341.84-4.35 346.01-4.35L346.01-4.35Q350.33-4.35 351.84-7.45L351.84-7.45 351.84-26.42 357.78-26.42 357.78 0 352.19 0ZM377.77-32.84L383.7-32.84 383.7-26.42 388.36-26.42 388.36-22.02 383.7-22.02 383.7-7.28Q383.7-5.76 384.3-5.09 384.9-4.42 386.43-4.42L386.43-4.42Q387.46-4.42 388.51-4.66L388.51-4.66 388.51-0.07Q386.48 0.49 384.6 0.49L384.6 0.49Q377.77 0.49 377.77-7.06L377.77-7.06 377.77-22.02 373.42-22.02 373.42-26.42 377.77-26.42 377.77-32.84ZM398.74-37.5L398.74-23.54Q401.64-26.9 406.09-26.9L406.09-26.9Q414.53-26.9 414.65-17.26L414.65-17.26 414.65 0 408.72 0 408.72-17.04Q408.72-19.78 407.54-20.91 406.35-22.05 404.06-22.05L404.06-22.05Q400.49-22.05 398.74-18.87L398.74-18.87 398.74 0 392.8 0 392.8-37.5 398.74-37.5ZM426.96-26.42L426.96 0 421.02 0 421.02-26.42 426.96-26.42ZM420.66-33.28L420.66-33.28Q420.66-34.64 421.52-35.55 422.39-36.45 424-36.45 425.61-36.45 426.49-35.55 427.37-34.64 427.37-33.28L427.37-33.28Q427.37-31.93 426.49-31.04 425.61-30.15 424-30.15 422.39-30.15 421.52-31.04 420.66-31.93 420.66-33.28ZM433.33-26.42L438.92-26.42 439.09-23.36Q442.02-26.9 446.78-26.9L446.78-26.9Q455.03-26.9 455.18-17.46L455.18-17.46 455.18 0 449.24 0 449.24-17.11Q449.24-19.63 448.16-20.84 447.07-22.05 444.61-22.05L444.61-22.05Q441.02-22.05 439.26-18.8L439.26-18.8 439.26 0 433.33 0 433.33-26.42ZM477.64 0L469.8-11.33 467.16-8.62 467.16 0 461.23 0 461.23-37.5 467.16-37.5 467.16-15.87 469.02-18.19 476.32-26.42 483.45-26.42 473.63-15.41 484.5 0 477.64 0Z" opacity="1" transform="matrix(1,0,0,1,0,0)" fill="#00ffef" class="undefined-text-1" data-fill-palette-color="quaternary" id="text-1"></path></svg></g></svg></g></svg></g></svg></g><g transform="matrix(1,0,0,1,40.713262274387006,0)"><svg viewBox="0 0 131.73191667838307 131.73607869274844" height="131.73607869274844" width="131.73191667838307"><g><svg xmlns="http://www.w3.org/2000/svg" xmlns:xlink="http://www.w3.org/1999/xlink" version="1.1" x="0" y="0" viewBox="18.351000000000017 18.348 63.30200000000001 63.304" enable-background="new 0 0 100 100" xml:space="preserve" height="131.73607869274844" width="131.73191667838307" class="icon-icon-0" data-fill-palette-color="quaternary" id="icon-0"><g fill="#00ffef" data-fill-palette-color="quaternary"><path fill="#00ffef" d="M80.951 48.597c-4.329-3.261-9.009-4.911-13.907-4.911-0.107 0-0.213 0-0.32 0.002-0.104-0.002-0.212-0.002-0.318-0.002-0.431 0-0.857 0.029-1.283 0.054 0.399-0.354 0.792-0.717 1.168-1.103 3.598-3.496 5.814-8.047 6.587-13.531 0.078-0.548-0.105-1.098-0.496-1.487-0.391-0.39-0.941-0.573-1.488-0.497-5.482 0.773-10.035 2.99-13.529 6.589-0.384 0.373-0.744 0.764-1.097 1.161 0.032-0.53 0.054-1.062 0.046-1.597 0.073-5.016-1.579-9.801-4.91-14.227-0.331-0.44-0.851-0.7-1.401-0.7-0.552 0-1.072 0.26-1.404 0.7-3.33 4.425-4.981 9.211-4.909 14.227-0.008 0.535 0.014 1.066 0.045 1.597-0.352-0.396-0.713-0.788-1.097-1.161-3.493-3.599-8.045-5.816-13.529-6.589-0.549-0.076-1.098 0.107-1.487 0.497-0.39 0.391-0.574 0.941-0.498 1.487 0.774 5.484 2.99 10.036 6.588 13.531 0.375 0.386 0.769 0.748 1.168 1.103-0.427-0.024-0.854-0.054-1.284-0.054-0.107 0-0.213 0-0.319 0.002-0.106-0.002-0.212-0.002-0.321-0.002-4.898 0-9.577 1.65-13.905 4.911-0.44 0.332-0.7 0.851-0.7 1.402 0 0.553 0.259 1.071 0.7 1.403 4.329 3.26 9.008 4.91 13.908 4.91 0.106 0 0.212 0 0.318-0.002 0.106 0.002 0.223-0.006 0.318 0.002 0.432 0 0.859-0.029 1.288-0.053-0.399 0.354-0.793 0.717-1.168 1.104-3.599 3.494-5.816 8.047-6.59 13.529-0.077 0.547 0.107 1.096 0.498 1.486 0.331 0.332 0.779 0.516 1.242 0.516 0.081 0 0.163-0.006 0.246-0.018 5.484-0.773 10.036-2.99 13.529-6.588 0.384-0.373 0.745-0.766 1.097-1.162-0.031 0.531-0.053 1.062-0.045 1.598-0.073 5.016 1.579 9.801 4.909 14.227 0.332 0.441 0.853 0.701 1.404 0.701 0.551 0 1.07-0.26 1.402-0.701 3.33-4.426 4.982-9.211 4.909-14.227 0.008-0.535-0.014-1.066-0.046-1.596 0.353 0.396 0.712 0.789 1.097 1.16 3.494 3.598 8.046 5.814 13.529 6.588 0.082 0.012 0.165 0.018 0.246 0.018 0.461 0 0.91-0.184 1.242-0.516 0.391-0.391 0.574-0.939 0.496-1.486-0.772-5.484-2.99-10.037-6.588-13.529-0.375-0.387-0.77-0.75-1.169-1.104 0.428 0.023 0.855 0.053 1.286 0.053 0.107 0 0.213 0 0.317-0.002 0.106 0.002 0.213 0.002 0.318 0.002 0.001 0 0 0 0.001 0 4.899 0 9.579-1.65 13.908-4.91 0.44-0.332 0.7-0.85 0.7-1.403C81.651 49.448 81.392 48.929 80.951 48.597zM48.784 49.509l1.217-1.215 1.214 1.215-1.214 1.215L48.784 49.509zM59.828 36.215c0.013-0.014 0.026-0.027 0.039-0.04 2.41-2.489 5.449-4.198 9.058-5.099-0.901 3.607-2.61 6.646-5.099 9.057-0.014 0.012-0.027 0.027-0.04 0.04-2.411 2.489-5.449 4.198-9.057 5.099C55.63 41.665 57.339 38.624 59.828 36.215zM47.2 33.247c-0.054-3.464 0.886-6.822 2.801-10.009 1.914 3.187 2.854 6.545 2.799 10.008 0 0.02 0 0.039 0 0.058 0.056 3.463-0.885 6.82-2.799 10.008-1.915-3.188-2.854-6.544-2.801-10.009C47.2 33.285 47.2 33.266 47.2 33.247zM31.077 31.076c3.608 0.9 6.647 2.609 9.056 5.099 0.014 0.013 0.027 0.026 0.04 0.04 2.489 2.409 4.199 5.448 5.098 9.057-3.606-0.901-6.646-2.61-9.057-5.101-0.013-0.013-0.027-0.026-0.039-0.039C33.686 37.722 31.977 34.684 31.077 31.076zM33.303 52.799c-0.009 0-0.018 0-0.027 0s-0.019 0-0.029 0c-0.096 0.002-0.192 0.004-0.289 0.004-3.361 0-6.62-0.941-9.72-2.803 3.099-1.861 6.358-2.801 9.717-2.801 0.098 0 0.195 0 0.292 0.002 0.019 0.001 0.038 0.001 0.056 0 0.098-0.002 0.195-0.002 0.292-0.002 3.359 0 6.619 0.939 9.717 2.801-3.099 1.862-6.359 2.803-9.719 2.803C33.496 52.803 33.399 52.801 33.303 52.799zM40.174 63.785c-0.014 0.014-0.027 0.025-0.041 0.039-2.409 2.488-5.448 4.197-9.056 5.1 0.899-3.607 2.608-6.646 5.098-9.059 0.013-0.012 0.026-0.025 0.041-0.039 2.409-2.488 5.448-4.197 9.056-5.098C44.371 58.336 42.662 61.375 40.174 63.785zM52.8 66.752c0.056 3.465-0.885 6.822-2.799 10.01-1.915-3.188-2.854-6.545-2.801-10.01 0-0.02 0-0.037 0-0.055-0.054-3.465 0.886-6.822 2.801-10.01 1.914 3.188 2.854 6.545 2.799 10.01C52.8 66.715 52.8 66.732 52.8 66.752zM68.924 68.924c-3.607-0.902-6.646-2.611-9.058-5.098-0.013-0.014-0.025-0.027-0.038-0.041-2.489-2.41-4.198-5.449-5.099-9.057 3.607 0.9 6.646 2.609 9.056 5.098 0.014 0.014 0.026 0.027 0.04 0.039C66.314 62.277 68.022 65.314 68.924 68.924zM67.042 52.803c-0.096 0-0.192-0.002-0.289-0.004-0.01 0-0.02 0-0.029 0-0.009 0-0.018 0-0.028 0-0.096 0.002-0.192 0.004-0.289 0.004-3.361 0-6.62-0.941-9.718-2.803 3.098-1.861 6.356-2.801 9.717-2.801 0.097 0 0.194 0 0.29 0.002 0.02 0.001 0.039 0.001 0.058 0 0.097-0.002 0.194-0.002 0.291-0.002 3.36 0 6.62 0.939 9.718 2.801C73.664 51.861 70.404 52.803 67.042 52.803z" data-fill-palette-color="quaternary"></path><circle fill="#00ffef" cx="66.725" cy="50" r="2.3" data-fill-palette-color="quaternary"></circle><circle fill="#00ffef" cx="33.276" cy="50" r="2.3" data-fill-palette-color="quaternary"></circle><circle fill="#00ffef" cx="50" cy="66.725" r="2.3" data-fill-palette-color="quaternary"></circle><circle fill="#00ffef" cx="50" cy="33.275" r="2.3" data-fill-palette-color="quaternary"></circle><circle fill="#00ffef" cx="61.827" cy="61.825" r="2.3" data-fill-palette-color="quaternary"></circle><circle fill="#00ffef" cx="38.174" cy="38.174" r="2.3" data-fill-palette-color="quaternary"></circle><circle fill="#00ffef" cx="38.174" cy="61.825" r="2.3" data-fill-palette-color="quaternary"></circle><circle fill="#00ffef" cx="61.827" cy="38.174" r="2.3" data-fill-palette-color="quaternary"></circle></g></svg></g></svg></g><g></g></svg></g></svg></g></svg></g></svg></g><defs></defs></svg><rect width="333.90454557049503" height="333.90454557049503" fill="none" stroke="none" visibility="hidden"></rect></g></svg></g></svg>