<?xml version="1.0" encoding="UTF-8"?>
<svg version="1.1" viewBox="0 0 2000 2000" xmlns="http://www.w3.org/2000/svg">
<g transform="translate(-.28443 -.28443)">
<svg width="2e3" height="2e3" data-background-color="#00ffef" viewBox="0 0 334 334" xmlns="http://www.w3.org/2000/svg" xmlns:xlink="http://www.w3.org/1999/xlink">
<g transform="translate(.0475 .0475)">
<svg width="333.9" height="333.9" viewBox="0 0 333.90454557049503 333.90454557049503">
<svg/>
<svg width="333.9" height="333.9" viewBox="0 0 333.90454557049503 333.90454557049503">
<g fill="#010c80" stroke="transparent">
<path d="m0 166.95c0-92.205 74.747-166.95 166.95-166.95s166.95 74.747 166.95 166.95c0 92.205-74.747 166.95-166.95 166.95-92.205 0-166.95-74.747-166.95-166.95zm166.95 162.3c89.636 0 162.3-72.664 162.3-162.3 0-89.636-72.664-162.3-162.3-162.3-89.636 0-162.3 72.664-162.3 162.3s72.664 162.3 162.3 162.3z" data-fill-palette-color="tertiary"/>
<ellipse cx="166.95" cy="166.95" rx="160.27" ry="160.27" stroke-width="0" data-fill-palette-color="tertiary"/>
</g>
<g transform="translate(86.431 71.173)">
<svg width="161.04" height="191.56" viewBox="0 0 161.04319189675124 191.55844122715712">
<svg width="161.04" height="191.56" viewBox="0 0 161.04319189675124 191.55844122715712">
<svg width="161.04" height="191.56" viewBox="0 0 213.15844122715708 253.54874214157024">
<g transform="translate(0 147.85)">
<svg width="213.16" height="105.69" viewBox="0 0 213.15844122715708 105.6942803062394">
<svg width="213.16" height="105.69" viewBox="0 0 213.15844122715708 105.6942803062394">
<svg width="213.16" height="68.276" viewBox="0 0 213.15844122715708 68.27624638922391">
<g>
<svg width="213.16" height="68.276" data-palette-color="#00ffef" viewBox="2.25 -37.5 156.09 50">
<path class="undefined-text-0" d="m11.9-0.95q3.7 0 6.5-2.18 2.8-2.17 2.8-6.62 0-2-0.97-3.43-0.98-1.42-2.58-2.2-1.6-0.77-3.5-1.35-1.9-0.57-3.8-1.22t-3.5-1.55-2.57-2.55q-0.98-1.65-0.98-3.95 0-4 2.75-6.55t7.35-2.55 8.8 1.05l0.55 6.25-0.95 0.4-0.5-3.95q-3.7-2.75-6.95-2.75t-5.45 1.97q-2.2 1.98-2.2 5.93 0 2.3 1.85 3.65t4.48 2.1q2.62 0.75 5.25 1.7 2.62 0.95 4.47 3.2t1.85 5.85q0 4.85-3.45 7.3t-9.1 2.45-9.8-3.05l0.05-5.3 0.95-0.25 0.1 2.85q1.35 1.9 3.7 3.32 2.35 1.43 4.85 1.43zm31.15 13.4-10.55 0.05-0.1-0.7 4.65-0.6q0.35-0.05 0.45-0.7l1.65-10.5h-1.65l-8.35-23.25-0.05-0.05q-0.25-0.6-0.8-0.7l-2.25-0.2q-0.05-0.3-0.05-0.75l10.5-0.05q0 0.05 0.05 0.75l-3.9 0.3 7.4 22.65 9.3-22q0.15-0.3-0.18-0.5-0.32-0.2-0.67-0.25l-2.2-0.15q-0.05-0.3-0.05-0.75l9.15-0.05q0 0.05 0.05 0.75l-4.45 0.45-10.5 23.8-1.9 11.45 4.35 0.25q0.1 0.7 0.1 0.75zm23.59-12.45-10.05 0.05 0.05-0.7 2.6-0.35q0.46-0.05 0.46-0.7v-21.65q-0.11-0.4-0.31-0.4l-3.05-0.1 0.05-0.7q3.16-0.45 4.25-0.45 2 0 2.25 1.75h0.06v1.05q4.1-2.8 7.85-2.95 3.64 0 5.54 1.45 0.85 0.65 1.53 2.02 0.68 1.38 0.68 3.28v17.4l3.75 0.25q0 0.05-0.05 0.75l-10 0.05q0-0.45 0.05-0.7l2.59-0.35q0.41-0.05 0.41-0.7v-15.45q0-2-0.53-3.4-0.52-1.4-1.18-2.05-0.65-0.65-1.59-1-1.11-0.4-2.31-0.4-3 0.05-6.74 2.35v20.65l3.74 0.25q0 0.05-0.05 0.75zm29.1-0.95 1.95-0.1 0.15 0.5q-0.05 0-0.7 0.15-1.5 0.35-3.35 0.35-1.7-0.1-3.1-0.58-1.4-0.47-2.6-2-1.2-1.52-1.2-3.92v-17.55h-2.55l0.4-0.4 2.2-0.45 0.4-4.8 2.8-0.25v5h6.05v0.9h-6.05v16.7q0 3.8 1.6 5.13 1.6 1.32 4 1.32zm11.15-34.5v13.55q6.55-4.5 11.85-2.8 1.2 0.35 2.07 1.02 0.88 0.68 1.53 2.03t0.65 3.25v17.4l3.75 0.25q0 0.05-0.05 0.75l-10 0.05q0-0.45 0.05-0.7l2.6-0.35q0.3 0 0.4-0.45v-15.65q0-1.95-0.52-3.38-0.53-1.42-1.23-2.07t-1.65-1q-1.3-0.5-2.3-0.4-3.25 0.1-7.15 2.65v20.3l3.75 0.25q0 0.05-0.05 0.75l-10 0.05q0-0.45 0.05-0.7l2.6-0.35q0.4-0.05 0.4-0.7v-34q0-0.55-0.3-0.55l-3-0.1 0.05-0.7q2.7-0.45 4.1-0.45t1.9 0.65 0.5 1.4zm32.45 35.45-9.6 0.05 0.05-0.7 3.6-0.45q0.5-0.05 0.8-0.65l8.45-15.25-9.55-16.3-0.25-0.35q-0.05-0.2-0.45-0.3l-2.25-0.25-0.05-0.75 9.4-0.05q0 0.05 0.05 0.75l-3.25 0.3 8.45 14.95 7.55-14.2q0.05-0.15-0.08-0.35-0.12-0.2-0.32-0.25l-4.25-0.4-0.05-0.75 9.1-0.05q0 0.05 0.05 0.75l-2.65 0.25-8.9 15.85 10.1 17.2 3.05 0.2q0 0.05-0.05 0.75l-10 0.05q0-0.45 0.05-0.7l2.4-0.35q0.3-0.05 0.5-0.25t0.05-0.4l-8.15-14.45-8 15.05 4.25 0.3q0 0.05-0.05 0.75z" fill="#00ffef" data-fill-palette-color="quaternary"/>
</svg>
</g>
</svg>
<g transform="translate(0 84.395)">
<svg width="213.16" height="21.3" viewBox="0 0 213.15844122715708 21.29965077443307">
<g>
<svg width="213.16" height="21.3" data-palette-color="#00ffef" viewBox="2.49 -37.5 482.01 48.17">
<path class="undefined-text-1" d="m24.58-11.57h6.16q-0.54 5.69-4.2 8.87-3.66 3.19-9.74 3.19-4.25 0-7.49-2.02-3.23-2.01-4.99-5.72t-1.83-8.62v-3.32q0-5.03 1.78-8.86t5.12-5.91q3.33-2.08 7.7-2.08 5.88 0 9.47 3.2t4.18 9.04h-6.16q-0.43-3.84-2.23-5.53-1.79-1.7-5.26-1.7-4.03 0-6.19 2.94t-2.21 8.63v3.15q0 5.76 2.06 8.79 2.07 3.03 6.05 3.03 3.63 0 5.47-1.64 1.83-1.63 2.31-5.44zm24.95-14.99-0.02 5.56q-1.17-0.19-2.42-0.19-4.07 0-5.49 3.12v18.07h-5.93v-26.42h5.66l0.15 2.96q2.15-3.44 5.95-3.44 1.27 0 2.1 0.34zm14.89 27.05q-5.64 0-9.14-3.55-3.5-3.56-3.5-9.46v-0.74q0-3.95 1.52-7.06 1.53-3.12 4.29-4.85t6.15-1.73q5.4 0 8.34 3.44t2.94 9.74v2.39h-17.26q0.27 3.27 2.18 5.18 1.92 1.9 4.83 1.9 4.07 0 6.64-3.29l3.19 3.05q-1.58 2.37-4.23 3.67-2.65 1.31-5.95 1.31zm-0.7-22.63q-2.45 0-3.95 1.71-1.5 1.7-1.91 4.76h11.3v-0.44q-0.2-2.98-1.59-4.51-1.39-1.52-3.85-1.52zm37.74 22.14h-6.06q-0.39-0.76-0.68-2.47-2.83 2.96-6.93 2.96-3.98 0-6.5-2.27-2.51-2.27-2.51-5.62 0-4.22 3.13-6.48 3.14-2.26 8.98-2.26h3.63v-1.73q0-2.05-1.14-3.28-1.15-1.24-3.49-1.24-2.03 0-3.33 1.02-1.29 1.01-1.29 2.57h-5.93q0-2.17 1.44-4.06 1.44-1.9 3.92-2.97t5.53-1.07q4.64 0 7.39 2.33 2.76 2.33 2.84 6.55v11.92q0 3.56 1 5.68v0.42zm-12.58-4.27q1.76 0 3.31-0.86 1.55-0.85 2.33-2.29v-4.98h-3.19q-3.3 0-4.96 1.15-1.66 1.14-1.66 3.24 0 1.71 1.13 2.72 1.14 1.02 3.04 1.02zm19.29-28.57h5.93v6.42h4.66v4.4h-4.66v14.74q0 1.52 0.6 2.19t2.14 0.67q1.02 0 2.07-0.24v4.59q-2.03 0.56-3.91 0.56-6.83 0-6.83-7.55v-14.96h-4.35v-4.4h4.35v-6.42zm26.75 33.33q-5.64 0-9.14-3.55-3.5-3.56-3.5-9.46v-0.74q0-3.95 1.52-7.06 1.53-3.12 4.29-4.85t6.15-1.73q5.4 0 8.34 3.44t2.94 9.74v2.39h-17.26q0.27 3.27 2.18 5.18 1.92 1.9 4.83 1.9 4.07 0 6.64-3.29l3.19 3.05q-1.58 2.37-4.23 3.67-2.65 1.31-5.95 1.31zm-0.7-22.63q-2.45 0-3.95 1.71-1.5 1.7-1.91 4.76h11.3v-0.44q-0.19-2.98-1.59-4.51-1.39-1.52-3.85-1.52zm46.06-4.28 5.49 18.24 4.2-18.24h5.79l-7.2 26.42h-4.89l-5.66-18.14-5.57 18.14h-4.88l-7.23-26.42h5.79l4.27 18.05 5.42-18.05h4.47zm25.29-11.08v13.96q2.91-3.36 7.35-3.36 8.45 0 8.57 9.64v17.26h-5.93v-17.04q0-2.74-1.19-3.87-1.18-1.14-3.48-1.14-3.56 0-5.32 3.18v18.87h-5.93v-37.5h5.93zm43.75 37.5h-6.06q-0.39-0.76-0.68-2.47-2.83 2.96-6.93 2.96-3.98 0-6.5-2.27-2.51-2.27-2.51-5.62 0-4.22 3.13-6.48 3.14-2.26 8.98-2.26h3.63v-1.73q0-2.05-1.14-3.28-1.15-1.24-3.49-1.24-2.03 0-3.32 1.02-1.3 1.01-1.3 2.57h-5.93q0-2.17 1.44-4.06 1.44-1.9 3.92-2.97t5.53-1.07q4.64 0 7.4 2.33 2.75 2.33 2.83 6.55v11.92q0 3.56 1 5.68v0.42zm-12.57-4.27q1.75 0 3.3-0.86 1.55-0.85 2.33-2.29v-4.98h-3.19q-3.3 0-4.96 1.15-1.66 1.14-1.66 3.24 0 1.71 1.14 2.72 1.13 1.02 3.04 1.02zm19.28-28.57h5.93v6.42h4.67v4.4h-4.67v14.74q0 1.52 0.6 2.19t2.14 0.67q1.02 0 2.07-0.24v4.59q-2.02 0.56-3.9 0.56-6.84 0-6.84-7.55v-14.96h-4.35v-4.4h4.35v-6.42zm31.22 6.42 5.59 17.92 5.37-17.92h6.33l-10.5 30.42q-2.42 6.67-8.21 6.67-1.29 0-2.85-0.44v-4.59l1.12 0.07q2.25 0 3.38-0.81 1.14-0.82 1.8-2.75l0.85-2.27-9.28-26.3h6.4zm19.21 13.26v-0.29q0-3.88 1.54-7 1.54-3.11 4.32-4.78t6.4-1.67q5.34 0 8.68 3.44 3.33 3.44 3.6 9.13l0.02 1.39q0 3.91-1.5 6.98-1.5 3.08-4.3 4.76-2.79 1.69-6.45 1.69-5.59 0-8.95-3.72-3.36-3.73-3.36-9.93zm5.93 0.22q0 4.08 1.69 6.38 1.68 2.31 4.69 2.31 3 0 4.67-2.34 1.67-2.35 1.67-6.86 0-4.01-1.72-6.35t-4.67-2.34q-2.91 0-4.62 2.3-1.71 2.31-1.71 6.9zm39.8 12.94-0.15-2.59q-2.61 3.08-7.42 3.08-4.3 0-6.51-2.52-2.21-2.51-2.21-7.27v-17.12h5.94v17.04q0 5.03 4.17 5.03 4.32 0 5.83-3.1v-18.97h5.94v26.42h-5.59zm25.58-32.84h5.93v6.42h4.66v4.4h-4.66v14.74q0 1.52 0.6 2.19t2.13 0.67q1.03 0 2.08-0.24v4.59q-2.03 0.56-3.91 0.56-6.83 0-6.83-7.55v-14.96h-4.35v-4.4h4.35v-6.42zm20.97-4.66v13.96q2.9-3.36 7.35-3.36 8.44 0 8.56 9.64v17.26h-5.93v-17.04q0-2.74-1.18-3.87-1.19-1.14-3.48-1.14-3.57 0-5.32 3.18v18.87h-5.94v-37.5h5.94zm28.22 11.08v26.42h-5.94v-26.42h5.94zm-6.3-6.86q0-1.36 0.86-2.27 0.87-0.9 2.48-0.9t2.49 0.9q0.88 0.91 0.88 2.27 0 1.35-0.88 2.24t-2.49 0.89-2.48-0.89q-0.86-0.89-0.86-2.24zm12.67 6.86h5.59l0.17 3.06q2.93-3.54 7.69-3.54 8.25 0 8.4 9.44v17.46h-5.94v-17.11q0-2.52-1.08-3.73-1.09-1.21-3.55-1.21-3.59 0-5.35 3.25v18.8h-5.93v-26.42zm44.31 26.42-7.84-11.33-2.64 2.71v8.62h-5.93v-37.5h5.93v21.63l1.86-2.32 7.3-8.23h7.13l-9.82 11.01 10.87 15.41h-6.86z" fill="#00ffef" data-fill-palette-color="quaternary"/>
</svg>
</g>
</svg>
</g>
</svg>
</svg>
</g>
<g transform="translate(40.713)">
<svg width="131.73" height="131.74" viewBox="0 0 131.73191667838307 131.73607869274844">
<svg class="icon-icon-0" width="131.73" height="131.74" enable-background="new 0 0 100 100" data-fill-palette-color="quaternary" version="1.1" viewBox="18.351000000000017 18.348 63.30200000000001 63.304" xml:space="preserve" xmlns="http://www.w3.org/2000/svg" xmlns:xlink="http://www.w3.org/1999/xlink"><g fill="#00ffef" data-fill-palette-color="quaternary"><path d="m80.951 48.597c-4.329-3.261-9.009-4.911-13.907-4.911-0.107 0-0.213 0-0.32 2e-3 -0.104-2e-3 -0.212-2e-3 -0.318-2e-3 -0.431 0-0.857 0.029-1.283 0.054 0.399-0.354 0.792-0.717 1.168-1.103 3.598-3.496 5.814-8.047 6.587-13.531 0.078-0.548-0.105-1.098-0.496-1.487-0.391-0.39-0.941-0.573-1.488-0.497-5.482 0.773-10.035 2.99-13.529 6.589-0.384 0.373-0.744 0.764-1.097 1.161 0.032-0.53 0.054-1.062 0.046-1.597 0.073-5.016-1.579-9.801-4.91-14.227-0.331-0.44-0.851-0.7-1.401-0.7-0.552 0-1.072 0.26-1.404 0.7-3.33 4.425-4.981 9.211-4.909 14.227-8e-3 0.535 0.014 1.066 0.045 1.597-0.352-0.396-0.713-0.788-1.097-1.161-3.493-3.599-8.045-5.816-13.529-6.589-0.549-0.076-1.098 0.107-1.487 0.497-0.39 0.391-0.574 0.941-0.498 1.487 0.774 5.484 2.99 10.036 6.588 13.531 0.375 0.386 0.769 0.748 1.168 1.103-0.427-0.024-0.854-0.054-1.284-0.054-0.107 0-0.213 0-0.319 2e-3 -0.106-2e-3 -0.212-2e-3 -0.321-2e-3 -4.898 0-9.577 1.65-13.905 4.911-0.44 0.332-0.7 0.851-0.7 1.402 0 0.553 0.259 1.071 0.7 1.403 4.329 3.26 9.008 4.91 13.908 4.91 0.106 0 0.212 0 0.318-2e-3 0.106 2e-3 0.223-6e-3 0.318 2e-3 0.432 0 0.859-0.029 1.288-0.053-0.399 0.354-0.793 0.717-1.168 1.104-3.599 3.494-5.816 8.047-6.59 13.529-0.077 0.547 0.107 1.096 0.498 1.486 0.331 0.332 0.779 0.516 1.242 0.516 0.081 0 0.163-6e-3 0.246-0.018 5.484-0.773 10.036-2.99 13.529-6.588 0.384-0.373 0.745-0.766 1.097-1.162-0.031 0.531-0.053 1.062-0.045 1.598-0.073 5.016 1.579 9.801 4.909 14.227 0.332 0.441 0.853 0.701 1.404 0.701s1.07-0.26 1.402-0.701c3.33-4.426 4.982-9.211 4.909-14.227 8e-3 -0.535-0.014-1.066-0.046-1.596 0.353 0.396 0.712 0.789 1.097 1.16 3.494 3.598 8.046 5.814 13.529 6.588 0.082 0.012 0.165 0.018 0.246 0.018 0.461 0 0.91-0.184 1.242-0.516 0.391-0.391 0.574-0.939 0.496-1.486-0.772-5.484-2.99-10.037-6.588-13.529-0.375-0.387-0.77-0.75-1.169-1.104 0.428 0.023 0.855 0.053 1.286 0.053 0.107 0 0.213 0 0.317-2e-3 0.106 2e-3 0.213 2e-3 0.318 2e-3h1e-3c4.899 0 9.579-1.65 13.908-4.91 0.44-0.332 0.7-0.85 0.7-1.403-2e-3 -0.551-0.261-1.07-0.702-1.402zm-32.167 0.912 1.217-1.215 1.214 1.215-1.214 1.215-1.217-1.215zm11.044-13.294c0.013-0.014 0.026-0.027 0.039-0.04 2.41-2.489 5.449-4.198 9.058-5.099-0.901 3.607-2.61 6.646-5.099 9.057-0.014 0.012-0.027 0.027-0.04 0.04-2.411 2.489-5.449 4.198-9.057 5.099 0.901-3.607 2.61-6.648 5.099-9.057zm-12.628-2.968c-0.054-3.464 0.886-6.822 2.801-10.009 1.914 3.187 2.854 6.545 2.799 10.008v0.058c0.056 3.463-0.885 6.82-2.799 10.008-1.915-3.188-2.854-6.544-2.801-10.009v-0.056zm-16.123-2.171c3.608 0.9 6.647 2.609 9.056 5.099 0.014 0.013 0.027 0.026 0.04 0.04 2.489 2.409 4.199 5.448 5.098 9.057-3.606-0.901-6.646-2.61-9.057-5.101-0.013-0.013-0.027-0.026-0.039-0.039-2.489-2.41-4.198-5.448-5.098-9.056zm2.226 21.723h-0.027s-0.019 0-0.029 0c-0.096 2e-3 -0.192 4e-3 -0.289 4e-3 -3.361 0-6.62-0.941-9.72-2.803 3.099-1.861 6.358-2.801 9.717-2.801 0.098 0 0.195 0 0.292 2e-3 0.019 1e-3 0.038 1e-3 0.056 0 0.098-2e-3 0.195-2e-3 0.292-2e-3 3.359 0 6.619 0.939 9.717 2.801-3.099 1.862-6.359 2.803-9.719 2.803-0.097 0-0.194-2e-3 -0.29-4e-3zm6.871 10.986c-0.014 0.014-0.027 0.025-0.041 0.039-2.409 2.488-5.448 4.197-9.056 5.1 0.899-3.607 2.608-6.646 5.098-9.059 0.013-0.012 0.026-0.025 0.041-0.039 2.409-2.488 5.448-4.197 9.056-5.098-0.901 3.608-2.61 6.647-5.098 9.057zm12.626 2.967c0.056 3.465-0.885 6.822-2.799 10.01-1.915-3.188-2.854-6.545-2.801-10.01v-0.055c-0.054-3.465 0.886-6.822 2.801-10.01 1.914 3.188 2.854 6.545 2.799 10.01v0.055zm16.124 2.172c-3.607-0.902-6.646-2.611-9.058-5.098-0.013-0.014-0.025-0.027-0.038-0.041-2.489-2.41-4.198-5.449-5.099-9.057 3.607 0.9 6.646 2.609 9.056 5.098 0.014 0.014 0.026 0.027 0.04 0.039 2.489 2.412 4.197 5.449 5.099 9.059zm-1.882-16.121c-0.096 0-0.192-2e-3 -0.289-4e-3h-0.029-0.028c-0.096 2e-3 -0.192 4e-3 -0.289 4e-3 -3.361 0-6.62-0.941-9.718-2.803 3.098-1.861 6.356-2.801 9.717-2.801 0.097 0 0.194 0 0.29 2e-3 0.02 1e-3 0.039 1e-3 0.058 0 0.097-2e-3 0.194-2e-3 0.291-2e-3 3.36 0 6.62 0.939 9.718 2.801-3.099 1.861-6.359 2.803-9.721 2.803z" data-fill-palette-color="quaternary"/><circle cx="66.725" cy="50" r="2.3" data-fill-palette-color="quaternary"/><circle cx="33.276" cy="50" r="2.3" data-fill-palette-color="quaternary"/><circle cx="50" cy="66.725" r="2.3" data-fill-palette-color="quaternary"/><circle cx="50" cy="33.275" r="2.3" data-fill-palette-color="quaternary"/><circle cx="61.827" cy="61.825" r="2.3" data-fill-palette-color="quaternary"/><circle cx="38.174" cy="38.174" r="2.3" data-fill-palette-color="quaternary"/><circle cx="38.174" cy="61.825" r="2.3" data-fill-palette-color="quaternary"/><circle cx="61.827" cy="38.174" r="2.3" data-fill-palette-color="quaternary"/></g></svg>
</svg>
</g>
</svg>
</svg>
</svg>
</g>
</svg>
</svg>
<rect width="333.9" height="333.9" fill="none" visibility="hidden"/>
</g>
</svg>
</g>
</svg>
